<svg xmlns="http://www.w3.org/2000/svg" data-name="Layer 1" viewBox="0 0 64 64" id="communication"><path d="M46.07 63.21H17.93a.49.49 0 0 1-.49-.5V56a5.09 5.09 0 0 1 1.8-3.64 10 10 0 0 1 4.76-2.1c2-.39 3.35-1 3.7-1.81a4.16 4.16 0 0 0 .18-2.09h.99a5.13 5.13 0 0 1-.27 2.56c-.51 1.1-2 1.9-4.42 2.36a8.85 8.85 0 0 0-4.27 1.82 4.15 4.15 0 0 0-1.49 2.9v6.24h27.16V56c-.22-3-3.24-4.25-5.74-4.72s-3.92-1.28-4.43-2.42a5.21 5.21 0 0 1-.25-2.61.49.49 0 0 1 .54-.44.5.5 0 0 1 .44.54 4.61 4.61 0 0 0 .16 2.1c.36.78 1.68 1.42 3.72 1.81 4.07.78 6.33 2.73 6.54 5.66v6.79a.49.49 0 0 1-.49.5zM25.54 38.25a.46.46 0 0 1-.2 0 .48.48 0 0 1-.28-.34c-.1-.45-.91-4.47.69-6.13a2.38 2.38 0 0 1 2-.68c.48-.69 2-2 6.52-1.23a5.41 5.41 0 0 1 3.82 2.3c1.58 2.38.84 5.61.8 5.75a.48.48 0 0 1-.47.38.48.48 0 0 1-.48-.37c0-.1-.73-2.53-5.09-2.12-2.2.21-3.38-.25-4-.71a7.21 7.21 0 0 1-3.07 3.14.53.53 0 0 1-.24.01zM27.47 32a1.36 1.36 0 0 0-1 .39c-.87.9-.76 3.18-.56 4.54A5.44 5.44 0 0 0 28.19 34a.51.51 0 0 1 .44-.37.48.48 0 0 1 .49.3s.61 1.12 3.64.83 4.54.64 5.34 1.51a6.17 6.17 0 0 0-.83-3.63 4.5 4.5 0 0 0-3.16-1.87c-4.85-.81-5.63.95-5.63 1a.52.52 0 0 1-.55.31 2.53 2.53 0 0 0-.46-.08z"></path><path d="M32 48.5a5.31 5.31 0 0 1-2.4-.62 8.52 8.52 0 0 1-3.77-5.09l-.16-.08a3.39 3.39 0 0 1-1.15-2.26c-.24-1.16-.14-1.94.29-2.37a.83.83 0 0 1 .25-.18.5.5 0 0 1 .36-.6.49.49 0 0 1 .6.35l.13.51a.48.48 0 0 1-.12.46.5.5 0 0 1-.46.15c-.1.08-.3.38-.07 1.49.28 1.33.63 1.59.7 1.63a.5.5 0 0 1 .29.07.48.48 0 0 1 .23.31s.77 3.38 3.35 4.76a4.21 4.21 0 0 0 1.94.5 4.15 4.15 0 0 0 1.91-.5c2.59-1.38 3.35-4.72 3.36-4.75a.48.48 0 0 1 .23-.32.48.48 0 0 1 .29-.07c.07 0 .42-.3.7-1.63.24-1.16 0-1.44 0-1.46a.54.54 0 0 1-.47-.15.52.52 0 0 1-.17-.45l.09-.51a.49.49 0 0 1 1 .17.9.9 0 0 1 .28.2c.44.43.53 1.21.29 2.37a3.39 3.39 0 0 1-1.14 2.26l-.16.08a8.52 8.52 0 0 1-3.77 5.09 5.33 5.33 0 0 1-2.45.64zm5.88-6.61zm-11.78 0zm0 0zm11.78 0zm-11.78 0zM32 52.11a7.12 7.12 0 0 1-5-2.19.48.48 0 0 1 0-.7.49.49 0 0 1 .69 0 6 6 0 0 0 4.31 1.9 6.14 6.14 0 0 0 4.34-1.9.49.49 0 0 1 .69 0 .48.48 0 0 1 0 .7A7.12 7.12 0 0 1 32 52.11zm-3.33-17.48a.47.47 0 0 1-.47-.37l-.66-2.55a.49.49 0 0 1 .36-.6.48.48 0 0 1 .59.35l.66 2.54a.49.49 0 0 1-.36.6zM17.93 63.21H.49a.49.49 0 0 1-.49-.5V57c.18-2.55 2.11-4.23 5.6-4.89 1.67-.31 2.79-.85 3.08-1.49a3.6 3.6 0 0 0 .15-1.73h.98A4.32 4.32 0 0 1 9.58 51c-.56 1.21-2.38 1.78-3.8 2-2.09.4-4.62 1.42-4.8 4v5.19h17a.5.5 0 0 1 0 1zM1 62.71zm18.57-9.54h-.1l-.47-.1c-1.42-.26-3.24-.83-3.8-2a4.48 4.48 0 0 1-.2-2.29.49.49 0 0 1 1 .1 3.57 3.57 0 0 0 .14 1.74c.29.64 1.42 1.18 3.08 1.49l.47.09a.49.49 0 0 1 .39.58.5.5 0 0 1-.51.39zM17.82 42.1a.48.48 0 0 1-.47-.37c0-.08-.6-2.07-4.23-1.73a5 5 0 0 1-3.36-.57A6.12 6.12 0 0 1 7.17 42a.49.49 0 0 1-.44 0 .51.51 0 0 1-.28-.34c-.08-.39-.77-3.82.61-5.25a2 2 0 0 1 1.71-.6c.45-.61 1.8-1.67 5.56-1a4.67 4.67 0 0 1 3.28 2 7 7 0 0 1 .69 4.93.49.49 0 0 1-.47.38zm-9.25-5.26a1.07 1.07 0 0 0-.8.3c-.69.72-.62 2.52-.47 3.66a4.58 4.58 0 0 0 1.8-2.37.5.5 0 0 1 .44-.37.48.48 0 0 1 .5.29s.51.9 3 .67 3.73.46 4.46 1.16a5.14 5.14 0 0 0-.7-2.85 3.73 3.73 0 0 0-2.62-1.54c-4-.67-4.68.76-4.68.77a.52.52 0 0 1-.55.31z"></path><path d="M12.41 50.77a4.67 4.67 0 0 1-2.07-.53 7.35 7.35 0 0 1-3.22-4.32L7 45.86a2.93 2.93 0 0 1-1-2c-.21-1-.12-1.69.26-2.07a.73.73 0 0 1 .18-.14.49.49 0 0 1 1-.21l.11.43a.48.48 0 0 1-.12.47.5.5 0 0 1-.45.14A2 2 0 0 0 7 43.7c.22 1 .48 1.26.54 1.31a.51.51 0 0 1 .27.07.47.47 0 0 1 .22.31 6.61 6.61 0 0 0 2.8 4 3.59 3.59 0 0 0 1.61.41 3.54 3.54 0 0 0 1.56-.43 6.61 6.61 0 0 0 2.8-4 .48.48 0 0 1 .23-.31.5.5 0 0 1 .26-.07c.07 0 .33-.31.54-1.32.17-.84.05-1.14 0-1.17a.45.45 0 0 1-.43-.13.47.47 0 0 1-.13-.44l.08-.43a.49.49 0 0 1 1 .15 1 1 0 0 1 .21.16c.39.38.47 1.06.26 2.07a2.89 2.89 0 0 1-1 2l-.11.06a7.31 7.31 0 0 1-3.22 4.32 4.65 4.65 0 0 1-2.08.51zm5-5.75zm-10 0zm0 0zm10 0zm-5.02 8.8A6.1 6.1 0 0 1 8.09 52a.48.48 0 0 1 0-.7.49.49 0 0 1 .69 0 5.06 5.06 0 0 0 3.61 1.58A5.12 5.12 0 0 0 16 51.25a.49.49 0 0 1 .7.7 6.15 6.15 0 0 1-4.31 1.87zM9.58 39a.48.48 0 0 1-.47-.37l-.56-2.16a.5.5 0 0 1 1-.25l.55 2.17a.49.49 0 0 1-.35.6zm53.93 24.21H46.07a.5.5 0 0 1 0-1H63V57c-.19-2.52-2.72-3.53-4.8-3.93-1.42-.26-3.24-.83-3.8-2a4.42 4.42 0 0 1-.23-2.24.49.49 0 1 1 1 .08 3.72 3.72 0 0 0 .14 1.74c.3.65 1.42 1.19 3.09 1.5 3.48.66 5.41 2.34 5.6 4.85v5.75a.49.49 0 0 1-.49.46zM44.43 53.17a.5.5 0 0 1-.48-.39.49.49 0 0 1 .39-.58l.47-.09c1.66-.31 2.78-.85 3.07-1.49a3.53 3.53 0 0 0 .12-1.73h1a4.16 4.16 0 0 1-.23 2.11c-.55 1.21-2.36 1.77-3.78 2l-.46.09zM57 42.1a.49.49 0 0 1-.48-.37c0-.08-.6-2.08-4.22-1.73a5.05 5.05 0 0 1-3.3-.57A6.14 6.14 0 0 1 46.38 42a.49.49 0 0 1-.44 0 .46.46 0 0 1-.28-.34c-.09-.39-.78-3.82.6-5.25a2 2 0 0 1 1.71-.6c.45-.61 1.8-1.67 5.57-1a4.69 4.69 0 0 1 3.28 2 7.07 7.07 0 0 1 .69 4.93.5.5 0 0 1-.48.38zm-9.26-5.26a1.09 1.09 0 0 0-.8.3c-.69.72-.62 2.51-.47 3.66a4.56 4.56 0 0 0 1.81-2.37.49.49 0 0 1 .44-.37.46.46 0 0 1 .49.29s.51.9 3 .67 3.73.46 4.45 1.16a5 5 0 0 0-.7-2.85 3.71 3.71 0 0 0-2.61-1.54c-4-.67-4.68.76-4.69.77a.51.51 0 0 1-.54.31z"></path><path d="M51.61 50.77a4.71 4.71 0 0 1-2.07-.53 7.28 7.28 0 0 1-3.21-4.32l-.12-.06a2.93 2.93 0 0 1-1-2c-.21-1-.12-1.69.27-2.07a.55.55 0 0 1 .17-.14.5.5 0 0 1 .37-.56.49.49 0 0 1 .6.35l.11.43a.53.53 0 0 1-.12.47.53.53 0 0 1-.46.14s-.15.33 0 1.18.47 1.26.54 1.31a.5.5 0 0 1 .26.07.48.48 0 0 1 .23.31 6.56 6.56 0 0 0 2.8 4 3.55 3.55 0 0 0 1.6.41 3.5 3.5 0 0 0 1.58-.41 6.54 6.54 0 0 0 2.8-4 .48.48 0 0 1 .23-.31.59.59 0 0 1 .26-.07c.07 0 .33-.31.54-1.32.18-.84 0-1.14 0-1.17a.46.46 0 0 1-.44-.13.5.5 0 0 1-.12-.44l.07-.43a.5.5 0 0 1 .58-.4.51.51 0 0 1 .4.55.74.74 0 0 1 .2.16c.39.38.48 1.06.27 2.07a2.93 2.93 0 0 1-1 2l-.12.06a7.28 7.28 0 0 1-3.21 4.32 4.69 4.69 0 0 1-2.01.53zm5-5.75zm-10 0zm0 0zm10 0zm-5.01 8.8A6.14 6.14 0 0 1 47.29 52a.49.49 0 0 1 .7-.7 5 5 0 0 0 3.61 1.58 5.14 5.14 0 0 0 3.62-1.58.49.49 0 0 1 .69 0 .48.48 0 0 1 0 .7 6.13 6.13 0 0 1-4.31 1.82zM48.79 39a.5.5 0 0 1-.48-.37l-.55-2.16a.49.49 0 0 1 1-.25l.55 2.17a.49.49 0 0 1-.35.6zM7.85 34.63a.5.5 0 0 1-.47-.34l-1.71-5.37a7.17 7.17 0 0 1-3.19-5.75c0-4.27 4.32-7.75 9.63-7.75s9.63 3.48 9.63 7.75-4.32 7.75-9.63 7.75a12 12 0 0 1-2.67-.31l-1.12 3.67a.48.48 0 0 1-.47.35zm4.26-18.22c-4.76 0-8.64 3-8.64 6.76a6.25 6.25 0 0 0 2.9 5 .46.46 0 0 1 .19.26l1.28 4 .79-2.61a.49.49 0 0 1 .6-.33 10.86 10.86 0 0 0 2.88.39c4.77 0 8.65-3 8.65-6.76s-3.88-6.71-8.65-6.71zm44.04 18.22a.48.48 0 0 1-.47-.35l-1.12-3.67a12 12 0 0 1-2.67.31c-5.31 0-9.63-3.48-9.63-7.75s4.32-7.75 9.63-7.75 9.63 3.48 9.63 7.75a7.17 7.17 0 0 1-3.19 5.75l-1.71 5.37a.51.51 0 0 1-.47.34zm-1.25-5.11a.5.5 0 0 1 .47.35l.79 2.61 1.28-4a.46.46 0 0 1 .19-.26 6.25 6.25 0 0 0 2.9-5c0-3.73-3.88-6.76-8.64-6.76s-8.65 3-8.65 6.76 3.88 6.76 8.65 6.76a10.86 10.86 0 0 0 2.88-.39zm-24.51-1.65a.48.48 0 0 1-.43-.25L26.19 21C21.74 19.13 19 15.5 19 11.43 19 5.57 24.82.79 32 .79s13 4.78 13 10.64-5.82 10.64-13 10.64h-.46l-.67 5.38a.5.5 0 0 1-.39.43zM32 1.78c-6.64 0-12 4.33-12 9.65 0 3.71 2.59 7 6.75 8.67a.47.47 0 0 1 .25.21l3.12 5.53.54-4.35a.5.5 0 0 1 .52-.44h.86c6.64 0 12-4.33 12-9.66S38.64 1.78 32 1.78z"></path></svg>