<svg xmlns="http://www.w3.org/2000/svg" viewBox="0 0 128 128" id="accounting"><path d="M88 66H71v2h17v6h-9v2h9v6H71v2h17v6H71v2h17v6H59v-3h-2v5h31v8h31V58H88v8zm2 2h27v6H90v-6zm0 8h27v6H90v-6zm0 8h27v6H90v-6zm0 22v-6h19v-2H90v-6h27v6h-4v2h4v6H90zm27-46v6H90v-6h27z"></path><path d="M71 74h4v2h-4z"></path><path d="M109.414 30H98.029A16.944 16.944 0 0 0 103 18c0-9.374-7.626-17-17-17S69 8.626 69 18c0 4.68 1.901 8.923 4.971 12H67V8c0-3.86-3.14-7-7-7H8C4.14 1 1 4.14 1 8v76c0 3.86 3.14 7 7 7h38v36h81V47.586L109.414 30zm.586 3.414L123.586 47H110V33.414zM86 3c8.271 0 15 6.729 15 15s-6.729 15-15 15-15-6.729-15-15S77.729 3 86 3zM3 84V8c0-2.757 2.243-5 5-5h52c2.757 0 5 2.243 5 5v76c0 2.757-2.243 5-5 5H8c-2.757 0-5-2.243-5-5zm45 41V91h12c3.86 0 7-3.14 7-7V32h9.378c2.739 1.888 6.052 3 9.622 3s6.884-1.112 9.622-3H108v17h17v76H48z"></path><path d="M33 33H9v50h50V33H33zm-22 2h22v22H11V35zm0 46V59h22v22H11zm46 0H35V59h22v22zm0-46v22H35V35h22z"></path><path d="M29 45h-6v-6h-2v6h-6v2h6v6h2v-6h6zM39 45h14v2H39zM39 65h14v2H39zM39 73h14v2H39zM29.707 63.707l-1.414-1.414L22 68.586l-6.293-6.293-1.414 1.414L20.586 70l-6.293 6.293 1.414 1.414L22 71.414l6.293 6.293 1.414-1.414L23.414 70zM9 27h50V9H9v18zm2-16h46v14H11V11zm16 82c-9.374 0-17 7.626-17 17s7.626 17 17 17 17-7.626 17-17-7.626-17-17-17zm0 32c-8.271 0-15-6.729-15-15s6.729-15 15-15 15 6.729 15 15-6.729 15-15 15z"></path><path d="M28 101v-4h-2v4h-5v5c0 2.757 2.243 5 5 5h2c1.654 0 3 1.346 3 3v3h-5c-1.654 0-3-1.346-3-3v-1h-2v1c0 2.757 2.243 5 5 5v4h2v-4h5v-5c0-2.757-2.243-5-5-5h-2c-1.654 0-3-1.346-3-3v-3h5c1.654 0 3 1.346 3 3v1h2v-1c0-2.757-2.243-5-5-5zM35 109h2v2h-2zM17 109h2v2h-2zM85 27v4h2v-4h5v-5c0-2.757-2.243-5-5-5h-2c-1.654 0-3-1.346-3-3v-3h5c1.654 0 3 1.346 3 3v1h2v-1c0-2.757-2.243-5-5-5V5h-2v4h-5v5c0 2.757 2.243 5 5 5h2c1.654 0 3 1.346 3 3v3h-5c-1.654 0-3-1.346-3-3v-1h-2v1c0 2.757 2.243 5 5 5zM94 17h2v2h-2zM76 17h2v2h-2zM15 19h2v2h-2zM21 19h22v2H21z"></path></svg>