<svg xmlns="http://www.w3.org/2000/svg" data-name="1" viewBox="0 0 128 128" id="left"><path d="M64 0a64 64 0 1 0 64 64A64.07 64.07 0 0 0 64 0Zm0 124a60 60 0 1 1 60-60 60.07 60.07 0 0 1-60 60Z"></path><path d="M102.5 62H30.33l26.58-26.59a2 2 0 0 0-2.82-2.82l-30 30a1.79 1.79 0 0 0-.25.31.55.55 0 0 0-.08.15 1.28 1.28 0 0 0-.11.2l-.06.2a.84.84 0 0 0-.05.17 2 2 0 0 0 0 .78.84.84 0 0 0 .05.17l.06.2a1.28 1.28 0 0 0 .11.2.55.55 0 0 0 .08.15 1.79 1.79 0 0 0 .25.31l30 30a2 2 0 0 0 2.82-2.82L30.33 66h72.17a2 2 0 0 0 0-4Z"></path></svg>