<svg xmlns="http://www.w3.org/2000/svg" viewBox="0 0 64 64" id="time"><path d="M32 .1C14.4.1.1 14.4.1 32S14.4 63.9 32 63.9 63.9 49.6 63.9 32 49.6.1 32 .1zm0 61.8C15.5 61.9 2.1 48.5 2.1 32S15.5 2.1 32 2.1 61.9 15.5 61.9 32 48.5 61.9 32 61.9z"></path><path d="M55.4 18.5c0-.1-.1-.1-.1-.1-2.4-4.1-5.7-7.4-9.8-9.8h-.2C41.5 6.3 36.9 5 32 5s-9.5 1.3-13.5 3.6h-.2c-4.1 2.4-7.4 5.7-9.8 9.8v.2C6.3 22.5 5 27.1 5 32s1.3 9.5 3.6 13.5v.1s0 .1.1.1c2.4 4 5.7 7.4 9.8 9.8h.2c4 2.3 8.5 3.6 13.4 3.6s9.5-1.3 13.4-3.6h.2c4-2.4 7.4-5.7 9.8-9.8l.1-.1v-.1c2.3-4 3.6-8.6 3.6-13.5-.2-4.9-1.5-9.5-3.8-13.5zm-1.2 25.2-3.7-2.2c-.5-.3-1.1-.1-1.4.4-.3.5-.1 1.1.4 1.4l3.7 2.2c-2 3.1-4.7 5.8-7.8 7.8l-2.2-3.7c-.3-.5-.9-.6-1.4-.4-.5.3-.6.9-.4 1.4l2.2 3.7c-3.2 1.7-6.8 2.7-10.7 2.9v-4.3c0-.6-.4-1-1-1-.5 0-1 .4-1 1V57c-3.8-.2-7.5-1.2-10.7-2.9l2.2-3.7c.3-.5.1-1.1-.4-1.4-.5-.3-1.1-.1-1.4.4l-2.2 3.7c-3.1-2-5.8-4.7-7.8-7.8l3.7-2.2c.5-.3.6-.9.4-1.4-.3-.5-.9-.6-1.4-.4l-3.7 2.2C8.1 40.4 7.1 36.8 7 33h4.3c.6 0 1-.4 1-1 0-.5-.4-1-1-1H7c.2-3.8 1.2-7.5 2.9-10.7l3.7 2.2c.2.1.3.1.5.1.3 0 .7-.2.9-.5.3-.5.1-1.1-.4-1.4l-3.7-2.2c2-3.1 4.7-5.8 7.8-7.8l2.2 3.7c.2.3.5.5.9.5.2 0 .3 0 .5-.1.5-.3.6-.9.4-1.4l-2.2-3.7C23.6 8.1 27.2 7.1 31 7v4.3c0 .6.4 1 1 1 .5 0 1-.4 1-1V7c3.8.2 7.5 1.2 10.7 2.9l-2.2 3.7c-.3.5-.1 1.1.4 1.4.2.1.3.1.5.1.3 0 .7-.2.9-.5l2.2-3.7c3.1 2 5.8 4.7 7.8 7.8l-3.7 2.2c-.5.3-.6.9-.4 1.4.2.3.5.5.9.5.2 0 .3 0 .5-.1l3.7-2.2c1.7 3.2 2.7 6.8 2.9 10.7h-4.3c-.6 0-1 .4-1 1 0 .5.4 1 1 1H57c-.1 3.6-1.1 7.2-2.8 10.5z"></path><path d="M45 31h-8.8c-.5-1.9-2.2-3.4-4.2-3.4-.8 0-1.6.3-2.3.7l-9.4-9.4c-.4-.4-1-.4-1.4 0-.4.4-.4 1 0 1.4l9.4 9.4c-.4.7-.7 1.4-.7 2.3 0 2.4 2 4.4 4.4 4.4 2.1 0 3.8-1.4 4.2-3.4H45c.6 0 1-.4 1-1 0-.5-.4-1-1-1zm-13 3.4c-1.3 0-2.4-1.1-2.4-2.4 0-.7.3-1.2.7-1.7.4-.4 1-.7 1.7-.7 1.3 0 2.4 1.1 2.4 2.4 0 1.3-1.1 2.4-2.4 2.4z"></path></svg>