<svg xmlns="http://www.w3.org/2000/svg" enable-background="new 0 0 128 128" viewBox="0 0 128 128" id="connections"><circle cx="64" cy="22.606" r="9.297" fill="none" stroke="#000" stroke-linecap="round" stroke-linejoin="round" stroke-miterlimit="10" stroke-width="4"></circle><path fill="none" stroke="#000" stroke-linecap="round" stroke-linejoin="round" stroke-miterlimit="10" stroke-width="4" d="M49.9836731,50.3528748c0-7.7410049,6.275322-14.0163269,14.0163269-14.0163269
	s14.0163269,6.275322,14.0163269,14.0163269"></path><circle cx="64" cy="30.83" r="24.1" fill="none" stroke="#000" stroke-linecap="round" stroke-linejoin="round" stroke-miterlimit="10" stroke-width="4"></circle><circle cx="26.551" cy="88.946" r="9.297" fill="none" stroke="#000" stroke-linecap="round" stroke-linejoin="round" stroke-miterlimit="10" stroke-width="4"></circle><path fill="none" stroke="#000" stroke-linecap="round" stroke-linejoin="round" stroke-miterlimit="10" stroke-width="4" d="M12.5347872,116.6926117c0-7.7410049,6.2753229-14.0163269,14.0163279-14.0163269
	s14.016325,6.275322,14.016325,14.0163269"></path><circle cx="26.551" cy="97.17" r="24.1" fill="none" stroke="#000" stroke-linecap="round" stroke-linejoin="round" stroke-miterlimit="10" stroke-width="4"></circle><circle cx="101.449" cy="88.946" r="9.297" fill="none" stroke="#000" stroke-linecap="round" stroke-linejoin="round" stroke-miterlimit="10" stroke-width="4"></circle><path fill="none" stroke="#000" stroke-linecap="round" stroke-linejoin="round" stroke-miterlimit="10" stroke-width="4" d="M87.4325562,116.6926117c0-7.7410049,6.275322-14.0163269,14.0163269-14.0163269
	s14.0163269,6.275322,14.0163269,14.0163269"></path><circle cx="101.449" cy="97.17" r="24.1" fill="none" stroke="#000" stroke-linecap="round" stroke-linejoin="round" stroke-miterlimit="10" stroke-width="4"></circle><line x1="78.016" x2="101.449" y1="50.353" y2="73.07" fill="none" stroke="#000" stroke-dasharray="5" stroke-linecap="round" stroke-linejoin="round" stroke-miterlimit="10" stroke-width="4"></line><line x1="50.651" x2="77.349" y1="97.17" y2="97.17" fill="none" stroke="#000" stroke-dasharray="5" stroke-linecap="round" stroke-linejoin="round" stroke-miterlimit="10" stroke-width="4"></line><line x1="26.551" x2="49.984" y1="73.07" y2="50.353" fill="none" stroke="#000" stroke-dasharray="5" stroke-linecap="round" stroke-linejoin="round" stroke-miterlimit="10" stroke-width="4"></line></svg>