<svg xmlns="http://www.w3.org/2000/svg" enable-background="new 0 0 60 60" viewBox="0 0 60 60" id="eye"><path d="M31.1061401,20.4904785c-6.3378906-0.3485718-12.5967407,1.1149292-18.1202393,4.225647
	c-0.4006958,0.2260132-0.5432129,0.7346191-0.3167725,1.1357422c0.2255859,0.401123,0.7337646,0.5432129,1.1361084,0.3171997
	c5.2457275-2.9547119,11.1983643-4.3449707,17.2097168-4.0130615c5.5560303,0.3057861,10.8831787,2.0523682,15.4032593,5.0506592
	c0.1417236,0.0940552,0.3021851,0.138855,0.460144,0.138855c0.2703857,0,0.5350952-0.1311035,0.6955566-0.3729858
	c0.2548828-0.3840332,0.1498413-0.9016113-0.2337646-1.1560669C42.5725098,22.6544189,36.9594727,20.8129883,31.1061401,20.4904785z
	"></path><path d="M9.5742798,33.4118042c0.3078613,0.3416748,0.8339844,0.3689575,1.1776733,0.0618896
	c0.3746338-0.3371582,0.7557983-0.6629639,1.1442261-0.9777222c4.6789551,4.1421509,10.6646729,6.5114746,16.8820801,6.960083
	c0.4042969,0.06073,0.8146973,0.1027832,1.2357178,0.1038818c0.1791992-0.0004883,0.3544922-0.0166626,0.5309448-0.0282593
	c0.1342163,0.00177,0.2680664,0.008728,0.4024048,0.008728c4.2456055,0,8.5408936-0.895874,12.550354-2.7369385
	c1.8178101-0.8343506,3.6299438-1.3034668,5.3866577-1.3942871l0.9642944-0.0500488
	c0.3200684-0.0167236,0.6026611-0.2154541,0.7264404-0.5114746c0.1237793-0.2960815,0.0667725-0.6364746-0.1466064-0.8763428
	c-4.9810181-5.588623-11.9240723-8.897644-19.552002-9.3174438c-7.7998047-0.4300537-15.3340454,2.2632446-21.2402954,7.5802612
	C9.2941284,32.5424194,9.2664185,33.0697632,9.5742798,33.4118042z M42.8021851,35.2878418
	c-2.3636475,1.0855103-4.8328857,1.8131714-7.3286743,2.2149048c1.7687988-1.5359497,2.894104-3.793396,2.894104-6.3098755
	c0-1.2731323-0.2889404-2.5115967-0.829834-3.6324463c3.9225464,1.2426147,7.4873657,3.3563843,10.4343872,6.250061
	C46.2675781,33.9981689,44.5319824,34.4937744,42.8021851,35.2878418z M30.7852783,26.3193359
	c1.4898071,0.0820313,2.9465332,0.296814,4.3699341,0.6075439c0.9940796,1.1918945,1.5444336,2.6943359,1.5444336,4.2659912
	c0,3.4783936-2.6756592,6.3482056-6.0928955,6.6665649c-0.5661011-0.0066528-1.1309814-0.0251465-1.6939087-0.0654297
	c-3.1765137-0.5263062-5.6113892-3.2846069-5.6113892-6.6011353c0-1.7143555,0.6469727-3.3251953,1.8153687-4.5753784
	C26.9771729,26.3308716,28.8712769,26.2127075,30.7852783,26.3193359z M22.7036133,27.1025391
	c-0.6956177,1.2368774-1.0700684,2.6334839-1.0700684,4.090332c0,2.2514648,0.901062,4.2960815,2.3599854,5.8024902
	c-3.9422607-1.0036011-7.6405029-2.8557739-10.7445679-5.5321045C16.133667,29.3950195,19.338501,27.9391479,22.7036133,27.1025391z
	"></path><path d="M30.0009766,35.5378418c2.0010376,0,3.6290894-1.6279907,3.6290894-3.6290894
	c0-2.0014648-1.6280518-3.6294556-3.6290894-3.6294556s-3.6290894,1.6279907-3.6290894,3.6294556
	C26.3718872,33.9098511,27.999939,35.5378418,30.0009766,35.5378418z M30.0009766,29.9472046
	c1.081543,0,1.9611206,0.8800049,1.9611206,1.9615479c0,1.081604-0.8795776,1.9611816-1.9611206,1.9611816
	c-1.081604,0-1.9611816-0.8795776-1.9611816-1.9611816C28.0397949,30.8272095,28.9193726,29.9472046,30.0009766,29.9472046z"></path></svg>