<svg xmlns="http://www.w3.org/2000/svg" enable-background="new 0 0 64 64" viewBox="0 0 64 64" id="gallery"><path d="M60.14,63.15H3.86C1.73,63.15,0,61.42,0,59.29V4.71c0-2.13,1.73-3.86,3.86-3.86h56.28c2.13,0,3.86,1.73,3.86,3.86v54.58
			C64,61.42,62.27,63.15,60.14,63.15z M3.86,2.79c-1.06,0-1.92,0.86-1.92,1.92v54.58c0,1.06,0.86,1.92,1.92,1.92h56.28
			c1.06,0,1.92-0.86,1.92-1.92V4.71c0-1.06-0.86-1.92-1.92-1.92H3.86z"></path><path d="M39.83,52.49c-0.31,0-0.61-0.15-0.8-0.42L23.49,29.25L7.95,52.07c-0.3,0.44-0.9,0.56-1.35,0.26
				c-0.44-0.3-0.56-0.9-0.26-1.35l16.34-23.99c0.36-0.53,1.24-0.53,1.6,0l16.34,23.99c0.3,0.44,0.19,1.05-0.26,1.35
				C40.21,52.44,40.02,52.49,39.83,52.49z"></path><path d="M56.85,52.49c-0.31,0-0.61-0.15-0.8-0.42L37.34,24.59l-7.71,11.32c-0.3,0.44-0.9,0.56-1.35,0.26
				c-0.44-0.3-0.56-0.9-0.26-1.35l8.51-12.5c0.36-0.53,1.24-0.53,1.6,0l19.51,28.66c0.3,0.44,0.19,1.05-0.26,1.35
				C57.23,52.43,57.04,52.49,56.85,52.49z"></path><path d="M34.61 32.58c-.29 0-.59-.05-.87-.17-.86-.34-1.58-.58-2.02-.69-.52-.12-.84-.65-.72-1.17.12-.52.65-.84 1.17-.72.68.16 1.62.51 2.29.77.16.06.35.03.48-.1l.8-.78c.83-.8 2.12-.85 3-.11l.68.57c.12.1.28.13.42.09l2.4-.74c.51-.16 1.05.13 1.21.64.16.51-.13 1.05-.64 1.21l-2.4.74c-.78.24-1.62.07-2.24-.45l-.68-.57c-.12-.1-.29-.09-.41.02l-.8.78C35.83 32.35 35.23 32.58 34.61 32.58zM23.43 36.08c-.51 0-1.02-.18-1.44-.53l-.68-.57c-.12-.1-.28-.13-.42-.09L19 35.48c-.61.19-1.26-.29-1.26-.93 0-.46.32-.85.75-.95l1.83-.56c.77-.24 1.62-.07 2.24.45l.68.57c.12.1.29.09.4-.01l.81-.78c.66-.65 1.66-.85 2.53-.51.4.16.89.34 1.35.5.51.17.78.72.61 1.23-.17.51-.72.78-1.23.61-.49-.17-1.01-.36-1.44-.53-.16-.06-.35-.03-.47.1l-.81.78C24.55 35.87 23.99 36.08 23.43 36.08zM19.96 21.25c-1.85 0-3.36-1.51-3.36-3.36 0-1.85 1.51-3.36 3.36-3.36 1.85 0 3.36 1.51 3.36 3.36C23.32 19.75 21.82 21.25 19.96 21.25zM19.96 16.48c-.78 0-1.42.64-1.42 1.42 0 .78.64 1.42 1.42 1.42.78 0 1.42-.64 1.42-1.42C21.38 17.12 20.75 16.48 19.96 16.48z"></path><path d="M56.85,52.49H7.15c-0.54,0-0.97-0.43-0.97-0.97V7.67c0-0.54,0.43-0.97,0.97-0.97h49.7c0.54,0,0.97,0.43,0.97,0.97v43.85
				C57.82,52.05,57.39,52.49,56.85,52.49z M8.12,50.55h47.76V8.64H8.12V50.55z"></path><path d="M19.96 13.74c-.54 0-.97-.43-.97-.97V11.7c0-.54.43-.97.97-.97.54 0 .97.43.97.97v1.07C20.93 13.3 20.5 13.74 19.96 13.74zM16.34 15.24c-.25 0-.5-.09-.69-.28l-.76-.76c-.38-.38-.38-.99 0-1.37.38-.38.99-.38 1.37 0l.76.76c.38.38.38.99 0 1.37C16.83 15.15 16.59 15.24 16.34 15.24zM14.84 18.87h-1.07c-.54 0-.97-.43-.97-.97 0-.54.43-.97.97-.97h1.07c.54 0 .97.43.97.97C15.81 18.43 15.37 18.87 14.84 18.87zM15.58 23.25c-.25 0-.5-.09-.69-.28-.38-.38-.38-.99 0-1.37l.76-.76c.38-.38.99-.38 1.37 0 .38.38.38.99 0 1.37l-.76.76C16.08 23.16 15.83 23.25 15.58 23.25zM19.96 25.07c-.54 0-.97-.43-.97-.97v-1.07c0-.54.43-.97.97-.97.54 0 .97.43.97.97v1.07C20.93 24.64 20.5 25.07 19.96 25.07zM24.35 23.25c-.25 0-.5-.09-.69-.28l-.76-.76c-.38-.38-.38-.99 0-1.37.38-.38.99-.38 1.37 0l.76.76c.38.38.38.99 0 1.37C24.85 23.16 24.6 23.25 24.35 23.25zM26.17 18.87h-1.07c-.54 0-.97-.43-.97-.97 0-.54.43-.97.97-.97h1.07c.54 0 .97.43.97.97C27.14 18.43 26.7 18.87 26.17 18.87zM23.59 15.24c-.25 0-.5-.09-.69-.28-.38-.38-.38-.99 0-1.37l.76-.76c.38-.38.99-.38 1.37 0 .38.38.38.99 0 1.37l-.76.76C24.09 15.15 23.84 15.24 23.59 15.24z"></path></svg>