<svg xmlns="http://www.w3.org/2000/svg" viewBox="0 0 80 80" id="dollar"><path d="M72 18H8c-1.654 0-3 1.346-3 3v38c0 1.654 1.346 3 3 3h64c1.654 0 3-1.346 3-3V21c0-1.654-1.346-3-3-3zm1 41c0 .551-.449 1-1 1H8c-.551 0-1-.449-1-1V21c0-.551.449-1 1-1h64c.551 0 1 .449 1 1v38z"></path><path d="M69 32.981c-4.421 0-8.019-3.597-8.019-8.018a1 1 0 0 0-1-1H20.02a1 1 0 0 0-1 1c0 4.421-3.598 8.018-8.019 8.018a1 1 0 0 0-1 1V46.02a1 1 0 0 0 1 1c4.421 0 8.019 3.597 8.019 8.018a1 1 0 0 0 1 1H59.98a1 1 0 0 0 1-1c0-4.421 3.598-8.018 8.019-8.018a1 1 0 0 0 1-1V33.98a1 1 0 0 0-1-1zm-1 12.087c-4.728.47-8.499 4.242-8.97 8.97H20.97c-.471-4.728-4.242-8.5-8.97-8.97V34.932c4.728-.47 8.499-4.242 8.97-8.97h38.06c.471 4.728 4.242 8.5 8.97 8.97v10.136z"></path><path d="M57 36c-2.206 0-4 1.794-4 4s1.794 4 4 4 4-1.794 4-4-1.794-4-4-4zm0 6c-1.103 0-2-.897-2-2s.897-2 2-2 2 .897 2 2-.897 2-2 2zm-33.75-6c-2.206 0-4 1.794-4 4s1.794 4 4 4 4-1.794 4-4-1.794-4-4-4zm0 6c-1.103 0-2-.897-2-2s.897-2 2-2 2 .897 2 2-.897 2-2 2zM40 29c-6.065 0-11 4.935-11 11s4.935 11 11 11 11-4.935 11-11-4.935-11-11-11zm0 20c-4.962 0-9-4.038-9-9s4.038-9 9-9 9 4.038 9 9-4.038 9-9 9z"></path><path d="M40 36c.879 0 1.594.673 1.594 1.5a1 1 0 0 0 2 0c0-1.59-1.101-2.92-2.594-3.345v-.775a1 1 0 0 0-2 0v.775c-1.493.425-2.594 1.756-2.594 3.345 0 1.93 1.613 3.5 3.594 3.5.879 0 1.594.673 1.594 1.5S40.879 44 40 44s-1.594-.673-1.594-1.5a1 1 0 0 0-2 0c0 1.59 1.101 2.92 2.594 3.345v.775a1 1 0 0 0 2 0v-.775c1.493-.425 2.594-1.756 2.594-3.345 0-1.93-1.613-3.5-3.594-3.5-.879 0-1.594-.673-1.594-1.5S39.121 36 40 36z"></path></svg>