<svg xmlns="http://www.w3.org/2000/svg" viewBox="0 0 64 64" id="office-documents"><path d="M23.73 64H18.7c-3.95 0-7.17-3.22-7.17-7.17v-3.68c0-2.69 2.19-4.89 4.89-4.89h9.61c2.69 0 4.89 2.19 4.89 4.89v3.68c-.01 3.95-3.23 7.17-7.19 7.17zm-7.32-13.8c-1.62 0-2.95 1.32-2.95 2.95v3.68a5.24 5.24 0 0 0 5.23 5.23h5.03a5.24 5.24 0 0 0 5.23-5.23v-3.68c0-1.63-1.32-2.95-2.95-2.95h-9.59zM47.67 64h-5.04c-3.95 0-7.17-3.22-7.17-7.17v-3.68c0-2.69 2.19-4.89 4.89-4.89h9.61c2.69 0 4.89 2.19 4.89 4.89v3.68c-.01 3.95-3.23 7.17-7.18 7.17zm-7.32-13.8c-1.63 0-2.95 1.32-2.95 2.95v3.68a5.24 5.24 0 0 0 5.23 5.23h5.04a5.24 5.24 0 0 0 5.23-5.23v-3.68c0-1.63-1.32-2.95-2.95-2.95h-9.6z"></path><path d="M29.94 54.11a.97.97 0 0 1-.47-1.82c2.47-1.37 4.97-1.37 7.44 0a.97.97 0 1 1-.94 1.7c-1.87-1.04-3.68-1.04-5.55 0a.95.95 0 0 1-.48.12zM36.6 59.19h-6.83c-.54 0-.97-.43-.97-.97s.43-.97.97-.97h6.83a.97.97 0 0 1 0 1.94zm9.36-8.99c-.54 0-.97-.43-.97-.97V35.89c0-.54.43-.97.97-.97s.97.43.97.97v13.34c0 .54-.43.97-.97.97zm-33.3 8.99H1.33c-.54 0-.97-.43-.97-.97V.97C.37.43.8 0 1.33 0h33.79c.26 0 .5.1.69.28l10.83 10.83c.18.18.28.43.28.69v15.74c0 .54-.43.97-.97.97s-.97-.43-.97-.97V12.2L34.73 1.94H2.3v55.31h10.36c.54 0 .97.43.97.97s-.43.97-.97.97z"></path><path d="M45.96 12.77H35.13c-.54 0-.97-.43-.97-.97V.97c0-.54.43-.97.97-.97s.97.43.97.97v9.86h9.86a.97.97 0 0 1 0 1.94zM28.19 44.61H8.65c-.54 0-.97-.43-.97-.97s.43-.97.97-.97h19.54c.54 0 .97.43.97.97s-.43.97-.97.97zM31.37 36.12H8.65c-.54 0-.97-.43-.97-.97s.43-.97.97-.97h22.73c.54 0 .97.43.97.97s-.44.97-.98.97zM34.65 27.64h-26c-.54 0-.97-.43-.97-.97s.43-.97.97-.97h26c.54 0 .97.43.97.97 0 .53-.44.97-.97.97zM38.64 19.15h-30c-.54 0-.97-.43-.97-.97s.43-.97.97-.97h30c.54 0 .97.43.97.97s-.43.97-.97.97zM33.77 44.87c-.25 0-.5-.1-.69-.28a.98.98 0 0 1-.24-.99l2.03-6.21c.05-.14.13-.28.24-.38l22.18-22.18c1.03-1.02 2.66-1.06 3.65-.07l1.97 1.97c.98.99.95 2.62-.07 3.65L40.66 42.56c-.11.11-.24.19-.38.24l-6.21 2.03c-.09.03-.2.04-.3.04zm2.88-6.65-1.36 4.17 4.17-1.36 22.01-22.01c.27-.27.3-.68.07-.91l-1.97-1.97c-.23-.23-.64-.2-.91.07L36.65 38.22zm3.33 3.66z"></path><path d="M59.73 23.09c-.25 0-.5-.09-.69-.28l-4.18-4.18a.966.966 0 0 1 0-1.37c.38-.38.99-.38 1.37 0l4.18 4.18c.38.38.38.99 0 1.37-.18.19-.43.28-.68.28zM39.98 42.85c-.25 0-.5-.09-.69-.28l-4.18-4.18a.966.966 0 0 1 0-1.37c.38-.38.99-.38 1.37 0l4.18 4.18a.966.966 0 0 1-.68 1.65z"></path></svg>