<svg xmlns="http://www.w3.org/2000/svg" viewBox="0 0 59.14 64"><title>to do list</title><g id="Layer_2" data-name="Layer 2"><g id="to_do_list" data-name="to do list"><path d="M16.11,17.38H8.9a1,1,0,0,0-1,1v7.2a1,1,0,0,0,1,1h7.21a1,1,0,0,0,1-1v-7.2A1,1,0,0,0,16.11,17.38Zm-1,7.2H9.9v-5.2h5.21Z"/><path d="M22.59,20.13H34.15a1,1,0,0,0,0-2H22.59a1,1,0,0,0,0,2Z"/><path d="M22.59,25.65h6.73a1,1,0,0,0,0-2H22.59a1,1,0,0,0,0,2Z"/><path d="M16.11,32.58H8.9a1,1,0,0,0-1,1v7.21a1,1,0,0,0,1,1h7.21a1,1,0,0,0,1-1V33.58A1,1,0,0,0,16.11,32.58Zm-1,7.21H9.9V34.58h5.21Z"/><path d="M22.59,35.32H28.9a1,1,0,0,0,0-2H22.59a1,1,0,1,0,0,2Z"/><path d="M34.15,38.86H22.59a1,1,0,1,0,0,2H34.15a1,1,0,0,0,0-2Z"/><path d="M16.11,47H8.9a1,1,0,0,0-1,1v7.2a1,1,0,0,0,1,1h7.21a1,1,0,0,0,1-1V48A1,1,0,0,0,16.11,47Zm-1,7.2H9.9V49h5.21Z"/><path d="M34.15,47.77H22.59a1,1,0,1,0,0,2H34.15a1,1,0,0,0,0-2Z"/><path d="M34.15,53.29H22.59a1,1,0,0,0,0,2H34.15a1,1,0,0,0,0-2Z"/><path d="M58.26,51.74,47.7,36.06V8.58a3.83,3.83,0,0,0-3.82-3.82h-2.8V4.15a4.15,4.15,0,0,0-8.3,0v.61H15.72V4.15a4.15,4.15,0,0,0-8.3,0v.61H3.82A3.83,3.83,0,0,0,0,8.58v51.6A3.83,3.83,0,0,0,3.82,64H43.88a3.83,3.83,0,0,0,3.82-3.82V54.62l2,2.91A5.13,5.13,0,0,0,53,59.72a5.26,5.26,0,0,0,1,.1,5.19,5.19,0,0,0,4.29-8.08Zm-7.5,3.84L37.55,35.89l5.25-3.54L56,52ZM36,27.93,41.2,31l-4.29,2.89ZM34.78,4.15a2.15,2.15,0,0,1,4.3,0v.61h-4.3Zm-25.36,0a2.15,2.15,0,0,1,4.3,0v.61H9.42Zm36.28,56A1.82,1.82,0,0,1,43.88,62H3.82A1.82,1.82,0,0,1,2,60.18V8.58A1.82,1.82,0,0,1,3.82,6.76h9.9V9.45a2.15,2.15,0,0,1-4.3,0,1,1,0,0,0-2,0,4.15,4.15,0,0,0,8.3,0V6.76H39.08V9.45a2.15,2.15,0,0,1-4.3,0,1,1,0,0,0-2,0,4.15,4.15,0,0,0,8.3,0V6.76h2.8A1.82,1.82,0,0,1,45.7,8.58V33.09L43.9,30.41l0,0a1,1,0,0,0-.23-.22l0,0,0,0-8.17-4.86-.71-1.12A1,1,0,1,0,33,25.19l.73,1.15,1.44,9.43v.08a1,1,0,0,0,.12.29l0,0L45.7,51.64Zm11.38-4.93A3.17,3.17,0,0,1,52,57.14l5-3.36A3.17,3.17,0,0,1,57.08,55.24Z"/></g></g></svg>