<svg xmlns="http://www.w3.org/2000/svg" enable-background="new 0 0 96 96" viewBox="0 0 96 96" id="accounting"><path d="M17.8 10.9h12.6c.6 0 1-.4 1-1s-.4-1-1-1H17.8c-.6 0-1 .4-1 1S17.2 10.9 17.8 10.9zM17.8 17.4h16.9c.6 0 1-.4 1-1s-.4-1-1-1H17.8c-.6 0-1 .4-1 1S17.2 17.4 17.8 17.4zM41.4 22h-8c-.6 0-1 .4-1 1s.4 1 1 1h8c.6 0 1-.4 1-1S42 22 41.4 22zM36.3 28.5H17.8c-.6 0-1 .4-1 1s.4 1 1 1h18.5c.6 0 1-.4 1-1S36.8 28.5 36.3 28.5zM41.4 8.9H37c-.6 0-1 .4-1 1s.4 1 1 1h4.4c.6 0 1-.4 1-1S42 8.9 41.4 8.9zM41.4 15.4h-2.2c-.6 0-1 .4-1 1s.4 1 1 1h2.2c.6 0 1-.4 1-1S42 15.4 41.4 15.4zM17.8 24h8.9c.6 0 1-.4 1-1s-.4-1-1-1h-8.9c-.6 0-1 .4-1 1S17.2 24 17.8 24zM16.2 80h-.5c-.5 0-.8-.4-.8-.8 0-.6-.4-1-1-1-1.6 0-1.2 3.1 1.1 3.7v1c0 .6.4 1 1 1s1-.4 1-1v-1c1.2-.3 2.1-1.4 2.1-2.7v-1.3c0-1.2-1-2.1-2.1-2.1H15c-.1 0-.1-.1-.1-.1v-1.3c0-.5.4-.8.8-.8h.5c.5 0 .8.4.8.8 0 .6.4 1 1 1 1.6 0 1.2-3.1-1.1-3.7v-1c0-.6-.4-1-1-1s-1 .4-1 1v1c-1.2.3-2.1 1.4-2.1 2.7v1.3c0 1.2 1 2.1 2.1 2.1h1.8c.1 0 .1.1.1.1v1.3C17 79.6 16.6 80 16.2 80zM41.4 48h-2.9c-.6 0-1 .4-1 1s.4 1 1 1h2.9c.6 0 1-.4 1-1S42 48 41.4 48zM54.1 37.4h-2.9c-.6 0-1 .4-1 1s.4 1 1 1h2.9c.6 0 1-.4 1-1S54.7 37.4 54.1 37.4zM66.8 29.4H64c-.6 0-1 .4-1 1s.4 1 1 1h2.9c.6 0 1-.4 1-1S67.4 29.4 66.8 29.4zM28.6 37h-2.9c-.6 0-1 .4-1 1s.4 1 1 1h2.9c.6 0 1-.4 1-1S29.1 37 28.6 37zM68.9 71.9H55.6c-.6 0-1 .4-1 1s.4 1 1 1h13.3c.6 0 1-.4 1-1S69.5 71.9 68.9 71.9zM68.9 77.1h-7.5c-.6 0-1 .4-1 1s.4 1 1 1h7.5c.6 0 1-.4 1-1S69.5 77.1 68.9 77.1z"></path><path d="M78.2 24.9c-.1-.4 1.3 1.1-21.1-21.2-.5-.5 2-.3-45.9-.3-.6 0-1 .4-1 1v57.5C-.6 66-3.4 79.9 4.7 88c3.3 3.3 8 5.1 12.9 4.6h59.7c.6 0 1-.4 1-1C78.2 21.1 78.3 25.2 78.2 24.9zM57.4 6.7l17.5 17.5H57.4V6.7zM25.1 66.2l-1.4 1.4C21.8 66 19.5 65 17 64.8v-2C20.1 63 22.9 64.3 25.1 66.2zM29.7 64.5h-3.4c-.5-.4-1-.8-1.6-1.2V45h5V64.5zM2.1 77.7h2c.2 2.5 1.2 4.9 2.8 6.7l-1.4 1.4C3.5 83.6 2.3 80.8 2.1 77.7zM5.4 67.6L6.8 69c-1.6 1.8-2.6 4.2-2.8 6.7h-2C2.3 72.6 3.5 69.8 5.4 67.6zM8.9 69.7c6.3-6.3 17-1.8 17 7 0 5.3-4.2 9.9-10 9.9-5.4 0-9.9-4.4-9.9-9.9 0 0 0-.1 0-.1C6 74.1 7 71.7 8.9 69.7zM8.2 85.9c1.8 1.6 4.2 2.6 6.7 2.8v2c-3.1-.2-5.9-1.5-8.1-3.4L8.2 85.9zM17 90.6v-2c2.5-.2 4.9-1.2 6.7-2.8l1.4 1.4C22.9 89.2 20.1 90.4 17 90.6zM26.5 85.8l-1.4-1.4c1.6-1.8 2.6-4.2 2.8-6.7h2C29.6 80.8 28.4 83.6 26.5 85.8zM27.9 75.7c-.2-2.5-1.2-4.9-2.8-6.7l1.4-1.4c1.9 2.2 3.1 5 3.4 8.1H27.9zM15 64.8c-2.5.2-4.9 1.2-6.7 2.8l-1.4-1.4c2.2-1.9 5-3.1 8.1-3.4V64.8zM23.8 90.6c8.7-5 10.7-16.5 4.4-24 15.2 0 30.3 0 45.6 0 .6 0 1-.4 1-1s-.4-1-1-1h-3.9V35.7c0-.6-.4-1-1-1h-7c-.6 0-1 .4-1 1v28.9h-3.7V44c0-.6-.4-1-1-1h-7c-.6 0-1 .4-1 1v20.5h-3.7v-9.8c0-.6-.4-1-1-1h-7c-.6 0-1 .4-1 1v9.8h-3.8V44c0-.6-.4-1-1-1h-7c-.6 0-1 .4-1 1v18.2c-3.2-1.5-6.8-1.9-10.4-1V5.3h43.2v19.9c0 .6.4 1 1 1h19.9v64.4H23.8zM37.5 64.5v-8.8h5v8.8H37.5zM50.2 64.5V45h5v19.5H50.2zM62.9 64.5V36.7h5v27.9H62.9zM91.6 30.9v-2.3c0-.6-.4-1-1-1h-5.8c-.6 0-1 .4-1 1v2.3h0c-.6 0-1 .4-1 1 0 7.6 0 28.2 0 36.5 0 2.3 1.7 4.3 3.9 4.6v4.6c0 .6.4 1 1 1s1-.4 1-1v-4.6c2.2-.4 3.9-2.3 3.9-4.6 0-11.8 0-23.5 0-35.3.8.4 1.3 1.2 1.3 2.1v20.2c0 .6.4 1 1 1s1-.4 1-1V35.3C96 32.9 94.1 30.9 91.6 30.9zM89 71c-.6.2-1 .2-1.5.2-1.5 0-2.7-1.2-2.7-2.7v-3.3h5.9v3.3C90.7 69.6 90 70.5 89 71zM84.8 63.2V36.9h5.9v26.2H84.8zM84.8 32.9c1.7 0 4.1 0 5.9 0v2h-5.9V32.9zM85.8 29.6h3.8v1.3h-3.8V29.6z"></path></svg>